<svg width="97" height="70" viewBox="0 0 97 70" fill="none" xmlns="http://www.w3.org/2000/svg">
<path fill-rule="evenodd" clip-rule="evenodd" d="M74.8515 67.5814C78.5296 66.785 82.1752 66.0295 85.8281 65.1263C86.6147 64.9349 87.092 64.1468 86.8994 63.3659C86.7079 62.5793 85.9142 62.1007 85.1333 62.2934C81.4999 63.1887 77.8853 63.9388 74.2325 64.7286C73.4438 64.9017 72.9447 65.6793 73.1133 66.4611C73.2864 67.2498 74.0628 67.7545 74.8515 67.5814Z" fill="#F2D97A"/>
<path fill-rule="evenodd" clip-rule="evenodd" d="M53.9555 44.5153C61.0711 34.9874 67.7008 25.1059 74.6085 15.4325C75.0764 14.7736 74.9229 13.8638 74.2698 13.3971C73.6109 12.9293 72.7024 13.077 72.2289 13.7347C65.3362 23.3933 58.7218 33.2601 51.6167 42.7663C51.133 43.4159 51.2678 44.3278 51.9116 44.8104C52.5612 45.2941 53.473 45.1591 53.9555 44.5153Z" fill="#F2D97A"/>
<path fill-rule="evenodd" clip-rule="evenodd" d="M12.6862 32.9064C13.1841 22.8657 13.4019 12.7956 14.012 2.76076C14.0566 1.95852 13.445 1.26801 12.644 1.21767C11.8372 1.16611 11.1455 1.78341 11.0952 2.58443C10.4884 12.6319 10.2682 22.7135 9.77357 32.7668C9.73464 33.5702 10.3531 34.2564 11.1566 34.2953C11.9657 34.3354 12.6461 33.7155 12.6862 32.9064Z" fill="#F2D97A"/>
</svg>
