<svg width="64" height="63" viewBox="0 0 64 63" fill="none" xmlns="http://www.w3.org/2000/svg">
<path fill-rule="evenodd" clip-rule="evenodd" d="M48.3556 21.0124C49.9314 26.8804 52.7561 31.8112 55.4914 37.137C56.0257 38.1771 57.2987 38.5851 58.3363 38.0538C59.3746 37.522 59.7818 36.2446 59.2481 35.2043C56.6543 30.1542 53.9321 25.4885 52.4342 19.9151C52.1315 18.7877 50.9703 18.1171 49.8462 18.4229C48.7193 18.7221 48.0522 19.8853 48.3556 21.0124Z" fill="#FFD00E"/>
<path fill-rule="evenodd" clip-rule="evenodd" d="M32.0407 16.9457C27.7597 29.577 25.2203 44.1908 25.1811 57.556C25.1784 58.723 26.1227 59.6739 27.2874 59.6753C28.4522 59.6768 29.4028 58.7351 29.4054 57.5681C29.444 44.6453 31.8998 30.5116 36.042 18.3025C36.4151 17.1966 35.822 15.9961 34.7187 15.6232C33.6154 15.2503 32.4138 15.8399 32.0407 16.9457Z" fill="#FFD00E"/>
<path fill-rule="evenodd" clip-rule="evenodd" d="M25.1144 9.53994C16.5113 12.583 9.60567 19.2809 4.16393 26.37C3.45602 27.2986 3.63053 28.6252 4.55237 29.3312C5.47822 30.043 6.80482 29.8669 7.51613 28.9445C12.4706 22.4854 18.6881 16.2952 26.523 13.5226C27.6224 13.134 28.1981 11.9246 27.8102 10.8281C27.423 9.73112 26.2131 9.15169 25.1144 9.53994Z" fill="#FFD00E"/>
</svg>
