<svg width="36" height="36" viewBox="0 0 36 36" fill="none" xmlns="http://www.w3.org/2000/svg">
<path d="M12.7209 1.20197C12.6389 0.634924 13.4363 0.421248 13.6488 0.953321L15.4312 5.41706C17.7327 11.181 23.684 14.6169 29.8264 13.7282L34.5833 13.0399C35.1504 12.9579 35.3641 13.7553 34.8319 13.9678L30.3682 15.7502C24.6043 18.0517 21.1684 24.003 22.0571 30.1454L22.7454 34.9023C22.8274 35.4694 22.03 35.683 21.8174 35.1509L20.0351 30.6872C17.7336 24.9233 11.7823 21.4874 5.63988 22.3761L0.882984 23.0644C0.315935 23.1464 0.102258 22.349 0.634331 22.1365L5.09807 20.3541C10.862 18.0526 14.2979 12.1013 13.4092 5.95887L12.7209 1.20197Z" fill="#FFE88C"/>
</svg>
