<svg width="70" height="70" viewBox="0 0 70 70" fill="none" xmlns="http://www.w3.org/2000/svg">
<path fill-rule="evenodd" clip-rule="evenodd" d="M47.4138 64.9999H23.4103C20.4385 64.9999 18 62.5995 18 59.5896V20.1171C18 17.1072 20.4385 14.6687 23.4103 14.6687H47.4138C50.4238 14.6687 52.8623 17.1072 52.8623 20.1171V59.5896C52.8623 62.5614 50.4238 64.9999 47.4138 64.9999ZM23.4103 16.1927C21.2767 16.1927 19.524 17.9454 19.524 20.1171V59.5896C19.524 61.7232 21.2767 63.4759 23.4103 63.4759H47.4138C49.5856 63.4759 51.3382 61.7232 51.3382 59.5896V20.1171C51.3382 17.9454 49.5856 16.1927 47.4138 16.1927H23.4103Z" fill="#323336"/>
<path fill-rule="evenodd" clip-rule="evenodd" d="M45.4325 30.3283H25.4296C23.9055 30.3283 22.6482 29.109 22.6482 27.585V22.0985C22.6482 20.5745 23.9055 19.3552 25.4296 19.3552H45.4325C46.9565 19.3552 48.1757 20.5745 48.1757 22.0985V27.585C48.1757 29.109 46.9565 30.3283 45.4325 30.3283ZM25.4296 20.8793C24.7437 20.8793 24.1722 21.4127 24.1722 22.0985V27.585C24.1722 28.2708 24.7437 28.8042 25.4296 28.8042H45.4325C46.1183 28.8042 46.6517 28.2708 46.6517 27.585V22.0985C46.6517 21.4127 46.1183 20.8793 45.4325 20.8793H25.4296Z" fill="#323336"/>
<path fill-rule="evenodd" clip-rule="evenodd" d="M35.4121 39.1295C33.6595 39.1295 32.2117 37.6816 32.2117 35.929C32.2117 34.1383 33.6595 32.6904 35.4121 32.6904C37.2029 32.6904 38.6507 34.1383 38.6507 35.929C38.6507 37.6816 37.2029 39.1295 35.4121 39.1295ZM35.4121 34.2145C34.4977 34.2145 33.7357 34.9765 33.7357 35.929C33.7357 36.8434 34.4977 37.6054 35.4121 37.6054C36.3647 37.6054 37.1267 36.8434 37.1267 35.929C37.1267 34.9765 36.3647 34.2145 35.4121 34.2145Z" fill="#323336"/>
<path fill-rule="evenodd" clip-rule="evenodd" d="M25.8868 39.1295C24.096 39.1295 22.6482 37.6816 22.6482 35.929C22.6482 34.1383 24.096 32.6904 25.8868 32.6904C27.6775 32.6904 29.0872 34.1383 29.0872 35.929C29.0872 37.6816 27.6775 39.1295 25.8868 39.1295ZM25.8868 34.2145C24.9342 34.2145 24.1722 34.9765 24.1722 35.929C24.1722 36.8434 24.9342 37.6054 25.8868 37.6054C26.8012 37.6054 27.5632 36.8434 27.5632 35.929C27.5632 34.9765 26.8012 34.2145 25.8868 34.2145Z" fill="#323336"/>
<path fill-rule="evenodd" clip-rule="evenodd" d="M44.9754 39.1295C43.1846 39.1295 41.7368 37.6816 41.7368 35.929C41.7368 34.1383 43.1846 32.6904 44.9754 32.6904C46.728 32.6904 48.1759 34.1383 48.1759 35.929C48.1759 37.6816 46.728 39.1295 44.9754 39.1295ZM44.9754 34.2145C44.0229 34.2145 43.2608 34.9765 43.2608 35.929C43.2608 36.8434 44.0229 37.6054 44.9754 37.6054C45.8898 37.6054 46.6518 36.8434 46.6518 35.929C46.6518 34.9765 45.8898 34.2145 44.9754 34.2145Z" fill="#323336"/>
<path fill-rule="evenodd" clip-rule="evenodd" d="M46.0804 43.0157H24.744C24.3248 43.0157 23.9819 42.6728 23.9819 42.2537C23.9819 41.8346 24.3248 41.4917 24.744 41.4917H46.0804C46.4995 41.4917 46.8424 41.8346 46.8424 42.2537C46.8424 42.6728 46.4995 43.0157 46.0804 43.0157Z" fill="#323336"/>
<path fill-rule="evenodd" clip-rule="evenodd" d="M46.9566 16.1928H38.8411C38.422 16.1928 38.0791 15.8499 38.0791 15.4308V12.116C38.0791 11.6969 38.422 11.354 38.8411 11.354H46.9566C47.3757 11.354 47.7186 11.6969 47.7186 12.116V15.4308C47.7186 15.8499 47.3757 16.1928 46.9566 16.1928ZM39.6031 14.6688H46.1946V12.878H39.6031V14.6688Z" fill="#323336"/>
<path fill-rule="evenodd" clip-rule="evenodd" d="M44.9372 12.8781H40.8604C40.4032 12.8781 40.0984 12.5352 40.0984 12.1161V0.762016C40.0984 0.342907 40.4032 0 40.8604 0H44.9372C45.3563 0 45.6992 0.342907 45.6992 0.762016V12.1161C45.6992 12.5352 45.3563 12.8781 44.9372 12.8781ZM41.6224 11.354H44.1752V1.52403H41.6224V11.354Z" fill="#323336"/>
<path fill-rule="evenodd" clip-rule="evenodd" d="M30.9543 16.1928H24.9344C24.5153 16.1928 24.1724 15.8499 24.1724 15.4308V11.4302C24.1724 11.0111 24.5153 10.6682 24.9344 10.6682H30.9543C31.3734 10.6682 31.7163 11.0111 31.7163 11.4302V15.4308C31.7163 15.8499 31.3734 16.1928 30.9543 16.1928ZM25.6964 14.6688H30.1923V12.1922H25.6964V14.6688Z" fill="#323336"/>
<path fill-rule="evenodd" clip-rule="evenodd" d="M27.3348 48.1976H24.744C24.3248 48.1976 23.9819 47.8547 23.9819 47.4356C23.9819 47.0165 24.3248 46.6736 24.744 46.6736H27.3348C27.7539 46.6736 28.0968 47.0165 28.0968 47.4356C28.0968 47.8547 27.7539 48.1976 27.3348 48.1976Z" fill="#323336"/>
<path fill-rule="evenodd" clip-rule="evenodd" d="M33.5833 48.1976H30.9925C30.5734 48.1976 30.2305 47.8547 30.2305 47.4356C30.2305 47.0165 30.5734 46.6736 30.9925 46.6736H33.5833C34.0024 46.6736 34.3454 47.0165 34.3454 47.4356C34.3454 47.8547 34.0024 48.1976 33.5833 48.1976Z" fill="#323336"/>
<path fill-rule="evenodd" clip-rule="evenodd" d="M39.8319 48.1976H37.2791C36.8219 48.1976 36.5171 47.8547 36.5171 47.4356C36.5171 47.0165 36.86 46.6736 37.2791 46.6736H39.8319C40.251 46.6736 40.5939 47.0165 40.5939 47.4356C40.5939 47.8547 40.251 48.1976 39.8319 48.1976Z" fill="#323336"/>
<path fill-rule="evenodd" clip-rule="evenodd" d="M46.0804 48.1976H43.5276C43.1085 48.1976 42.7656 47.8547 42.7656 47.4356C42.7656 47.0165 43.1085 46.6736 43.5276 46.6736H46.0804C46.4995 46.6736 46.8424 47.0165 46.8424 47.4356C46.8424 47.8547 46.4995 48.1976 46.0804 48.1976Z" fill="#323336"/>
<path fill-rule="evenodd" clip-rule="evenodd" d="M27.3348 53.2269H24.744C24.3248 53.2269 23.9819 52.884 23.9819 52.4649C23.9819 52.0458 24.3248 51.7029 24.744 51.7029H27.3348C27.7539 51.7029 28.0968 52.0458 28.0968 52.4649C28.0968 52.884 27.7539 53.2269 27.3348 53.2269Z" fill="#323336"/>
<path fill-rule="evenodd" clip-rule="evenodd" d="M33.5833 53.2269H30.9925C30.5734 53.2269 30.2305 52.884 30.2305 52.4649C30.2305 52.0458 30.5734 51.7029 30.9925 51.7029H33.5833C34.0024 51.7029 34.3454 52.0458 34.3454 52.4649C34.3454 52.884 34.0024 53.2269 33.5833 53.2269Z" fill="#323336"/>
<path fill-rule="evenodd" clip-rule="evenodd" d="M39.8319 53.2269H37.2791C36.8219 53.2269 36.5171 52.884 36.5171 52.4649C36.5171 52.0458 36.86 51.7029 37.2791 51.7029H39.8319C40.251 51.7029 40.5939 52.0458 40.5939 52.4649C40.5939 52.884 40.251 53.2269 39.8319 53.2269Z" fill="#323336"/>
<path fill-rule="evenodd" clip-rule="evenodd" d="M46.0804 53.2269H43.5276C43.1085 53.2269 42.7656 52.884 42.7656 52.4649C42.7656 52.0458 43.1085 51.7029 43.5276 51.7029H46.0804C46.4995 51.7029 46.8424 52.0458 46.8424 52.4649C46.8424 52.884 46.4995 53.2269 46.0804 53.2269Z" fill="#323336"/>
<path fill-rule="evenodd" clip-rule="evenodd" d="M27.3348 58.2181H24.744C24.3248 58.2181 23.9819 57.8752 23.9819 57.4561C23.9819 57.037 24.3248 56.6941 24.744 56.6941H27.3348C27.7539 56.6941 28.0968 57.037 28.0968 57.4561C28.0968 57.8752 27.7539 58.2181 27.3348 58.2181Z" fill="#323336"/>
<path fill-rule="evenodd" clip-rule="evenodd" d="M33.5833 58.2181H30.9925C30.5734 58.2181 30.2305 57.8752 30.2305 57.4561C30.2305 57.037 30.5734 56.6941 30.9925 56.6941H33.5833C34.0024 56.6941 34.3454 57.037 34.3454 57.4561C34.3454 57.8752 34.0024 58.2181 33.5833 58.2181Z" fill="#323336"/>
<path fill-rule="evenodd" clip-rule="evenodd" d="M39.8319 58.2181H37.2791C36.8219 58.2181 36.5171 57.8752 36.5171 57.4561C36.5171 57.037 36.86 56.6941 37.2791 56.6941H39.8319C40.251 56.6941 40.5939 57.037 40.5939 57.4561C40.5939 57.8752 40.251 58.2181 39.8319 58.2181Z" fill="#323336"/>
<path fill-rule="evenodd" clip-rule="evenodd" d="M46.0804 58.2181H43.5276C43.1085 58.2181 42.7656 57.8752 42.7656 57.4561C42.7656 57.037 43.1085 56.6941 43.5276 56.6941H46.0804C46.4995 56.6941 46.8424 57.037 46.8424 57.4561C46.8424 57.8752 46.4995 58.2181 46.0804 58.2181Z" fill="#323336"/>
</svg>
