<svg width="1245" height="840" viewBox="0 0 1245 840" fill="none" xmlns="http://www.w3.org/2000/svg">
<path opacity="0.06" d="M691.425 -290C375.341 -184.014 108.715 32.0502 0 354C107.474 672.28 371.595 890.755 691.425 998C975.827 779.994 1130.91 604.916 1245 354C1081.24 244.688 1012.45 188.413 879.68 19.2597C701.793 101.397 546.954 197.119 409.789 350.505C459.012 420.214 540.735 485.286 606.811 538.745C703.106 468.39 776.543 399.835 824.11 341.015C853.937 377.25 887.569 401.359 919.6 421.513C836.86 561.462 744.003 638.299 629.34 711.689C457.112 621.04 318.671 464.133 251.385 331.462C377.501 124.732 575.31 -14.8548 800.075 -92.645C763.661 -156.054 715.933 -215.105 691.425 -290Z" fill="black"/>
</svg>
